<svg xmlns="http://www.w3.org/2000/svg" viewBox="0 0 48 48">
  <circle cx="24" cy="24" r="24" fill="#E1486D"/>
  <path d="M24 16.2c2.5 0 2.8 0 3.8.1.9 0 1.4.2 1.7.3.4.2.7.4 1 .7.3.3.5.6.7 1 .1.3.3.8.3 1.7.1 1 .1 1.3.1 3.8s0 2.8-.1 3.8c0 .9-.2 1.4-.3 1.7-.2.4-.4.7-.7 1-.3.3-.6.5-1 .7-.3.1-.8.3-1.7.3-1 .1-1.3.1-3.8.1s-2.8 0-3.8-.1c-.9 0-1.4-.2-1.7-.3-.4-.2-.7-.4-1-.7-.3-.3-.5-.6-.7-1-.1-.3-.3-.8-.3-1.7-.1-1-.1-1.3-.1-3.8s0-2.8.1-3.8c0-.9.2-1.4.3-1.7.2-.4.4-.7.7-1 .3-.3.6-.5 1-.7.3-.1.8-.3 1.7-.3 1-.1 1.3-.1 3.8-.1M24 14c-2.6 0-2.9 0-3.9.1-1 0-1.7.2-2.3.4-.6.2-1.2.6-1.7 1.1-.5.5-.8 1.1-1.1 1.7-.2.6-.4 1.3-.4 2.3C14.1 21.1 14 21.4 14 24s0 2.9.1 3.9c0 1 .2 1.7.4 2.3.2.6.6 1.2 1.1 1.7.5.5 1.1.8 1.7 1.1.6.2 1.3.4 2.3.4 1 .1 1.3.1 3.9.1s2.9 0 3.9-.1c1 0 1.7-.2 2.3-.4.6-.2 1.2-.6 1.7-1.1.5-.5.8-1.1 1.1-1.7.2-.6.4-1.3.4-2.3.1-1 .1-1.3.1-3.9s0-2.9-.1-3.9c0-1-.2-1.7-.4-2.3-.2-.6-.6-1.2-1.1-1.7-.5-.5-1.1-.8-1.7-1.1-.6-.2-1.3-.4-2.3-.4-1-.1-1.3-.1-3.9-.1z" fill="white"/>
  <path d="M24 19.2c-2.6 0-4.8 2.2-4.8 4.8s2.2 4.8 4.8 4.8 4.8-2.2 4.8-4.8-2.2-4.8-4.8-4.8zm0 7.9c-1.7 0-3.1-1.4-3.1-3.1S22.3 21 24 21s3.1 1.4 3.1 3.1-1.4 3-3.1 3z" fill="white"/>
  <circle cx="29" cy="19" r="1.1" fill="white"/>
</svg>
