<svg width="1309" height="476" viewBox="0 0 1309 476" fill="none" xmlns="http://www.w3.org/2000/svg">
<path d="M704.934 42.7975C718.485 16.5145 745.58 0 775.151 0H1230C1273.63 0 1309 35.3695 1309 79V397C1309 440.631 1273.63 476 1230 476H784.084C750.01 476 719.776 454.153 709.078 421.803L692.742 372.399C688.013 358.098 679.294 345.447 667.613 335.938L630.722 305.904C624.937 301.194 618.513 297.327 611.642 294.418L549.5 268.112C505.95 251.76 501.171 192.06 541.566 168.989L549.5 164.457L622 114.657L663.936 92.0938C677.982 84.5363 689.412 72.9039 696.721 58.7268L704.934 42.7975Z" fill="white"/>
<rect y="72" width="914" height="335" rx="79" fill="white"/>
</svg>
